<?xml version="1.0" encoding="UTF-8" standalone="no" ?><!-- Created with Inkscape (http://www.inkscape.org/) --><svg height="40000" id="svg2" inkscape:version="1.4.3 (0d15f75, 2025-12-25)" sodipodi:docname="Mock Device Many Patterns.svg" version="1.1" width="40000" xmlns="http://www.w3.org/2000/svg" xmlns:cc="http://creativecommons.org/ns#" xmlns:dc="http://purl.org/dc/elements/1.1/" xmlns:inkscape="http://www.inkscape.org/namespaces/inkscape" xmlns:rdf="http://www.w3.org/1999/02/22-rdf-syntax-ns#" xmlns:sodipodi="http://sodipodi.sourceforge.net/DTD/sodipodi-0.dtd" xmlns:svg="http://www.w3.org/2000/svg" xmlns:xlink="http://www.w3.org/1999/xlink">
  <defs id="defs4"/>
  <sodipodi:namedview bordercolor="#666666" borderopacity="1.0" id="base" inkscape:current-layer="svg2" inkscape:cx="12621.856" inkscape:cy="17995.868" inkscape:deskcolor="#d1d1d1" inkscape:document-units="px" inkscape:pagecheckerboard="0" inkscape:pageopacity="0.0" inkscape:pageshadow="2" inkscape:showpageshadow="false" inkscape:window-height="991" inkscape:window-maximized="1" inkscape:window-width="1920" inkscape:window-x="-9" inkscape:window-y="-9" inkscape:zoom="0.014142136" pagecolor="#ffffff" showgrid="false"/>
  <metadata id="metadata7">
    <rdf:RDF>
      <cc:Work rdf:about="">
        <dc:format>image/svg+xml</dc:format>
        <dc:type rdf:resource="http://purl.org/dc/dcmitype/StillImage"/>
      </cc:Work>
    </rdf:RDF>
  </metadata>
  <image height="40000" id="image1" width="40000" x="0" xlink:href="./Mock Device Many Patterns_surfacepic.jpg" y="0"/>
  <path d="M 0,3700 H 40000" id="path3" style="fill:none;stroke:#00ff00;stroke-width:100px;stroke-linecap:butt;stroke-linejoin:miter;stroke-opacity:1" transform="translate(0,560.22449)"/>
  <path d="M 0,3700 H 40000" id="path3-9" style="fill:none;stroke:#00ff00;stroke-width:100px;stroke-linecap:butt;stroke-linejoin:miter;stroke-opacity:1" transform="translate(0,3581.2041)"/>
  <path d="M 0,3700 H 40000" id="path3-8" style="fill:none;stroke:#00ff00;stroke-width:100px;stroke-linecap:butt;stroke-linejoin:miter;stroke-opacity:1" transform="translate(0,5091.6939)"/>
  <path d="M 0,3700 H 40000" id="path3-7" style="fill:none;stroke:#00ff00;stroke-width:100px;stroke-linecap:butt;stroke-linejoin:miter;stroke-opacity:1" transform="translate(0,8112.6735)"/>
  <path d="M 0,3700 H 40000" id="path3-6" style="fill:none;stroke:#00ff00;stroke-width:100px;stroke-linecap:butt;stroke-linejoin:miter;stroke-opacity:1" transform="translate(0,11133.653)"/>
  <path d="M 0,3700 H 40000" id="path3-77" style="fill:none;stroke:#00ff00;stroke-width:100px;stroke-linecap:butt;stroke-linejoin:miter;stroke-opacity:1" transform="translate(0,14154.633)"/>
  <path d="M 0,3700 H 40000" id="path3-90" style="fill:none;stroke:#00ff00;stroke-width:100px;stroke-linecap:butt;stroke-linejoin:miter;stroke-opacity:1" transform="translate(0,15665.122)"/>
  <path d="M 0,3700 H 40000" id="path3-4" style="fill:none;stroke:#00ff00;stroke-width:100px;stroke-linecap:butt;stroke-linejoin:miter;stroke-opacity:1" transform="translate(0,17175.612)"/>
  <path d="M 0,3700 H 40000" id="path3-75" style="fill:none;stroke:#00ff00;stroke-width:100px;stroke-linecap:butt;stroke-linejoin:miter;stroke-opacity:1" transform="translate(0,18686.102)"/>
  <path d="M 0,3700 H 40000" id="path3-3" style="fill:none;stroke:#00ff00;stroke-width:100px;stroke-linecap:butt;stroke-linejoin:miter;stroke-opacity:1" transform="translate(0,20196.592)"/>
  <path d="M 0,3700 H 40000" id="path3-41" style="fill:none;stroke:#00ff00;stroke-width:100px;stroke-linecap:butt;stroke-linejoin:miter;stroke-opacity:1" transform="translate(0,21707.082)"/>
  <path d="M 0,3700 H 40000" id="path3-908" style="fill:none;stroke:#00ff00;stroke-width:100px;stroke-linecap:butt;stroke-linejoin:miter;stroke-opacity:1" transform="translate(0,23217.571)"/>
  <path d="M 0,3700 H 40000" id="path3-45" style="fill:none;stroke:#00ff00;stroke-width:100px;stroke-linecap:butt;stroke-linejoin:miter;stroke-opacity:1" transform="translate(0,24728.061)"/>
  <path d="M 0,3700 H 40000" id="path3-80" style="fill:none;stroke:#00ff00;stroke-width:100px;stroke-linecap:butt;stroke-linejoin:miter;stroke-opacity:1" transform="translate(0,26238.551)"/>
  <path d="M 0,3700 H 40000" id="path3-74" style="fill:none;stroke:#00ff00;stroke-width:100px;stroke-linecap:butt;stroke-linejoin:miter;stroke-opacity:1" transform="translate(0,27749.041)"/>
  <path d="M 0,3700 H 40000" id="path3-1" style="fill:none;stroke:#00ff00;stroke-width:100px;stroke-linecap:butt;stroke-linejoin:miter;stroke-opacity:1" transform="translate(0,29259.531)"/>
  <path d="M 0,3700 H 40000" id="path3-63" style="fill:none;stroke:#00ff00;stroke-width:100px;stroke-linecap:butt;stroke-linejoin:miter;stroke-opacity:1" transform="translate(0,30770.02)"/>
  <path d="M 0,3700 H 40000" id="path3-19" style="fill:none;stroke:#00ff00;stroke-width:100px;stroke-linecap:butt;stroke-linejoin:miter;stroke-opacity:1" transform="translate(0,32280.51)"/>
  <path d="M 0,3700 H 40000" id="path3-42" style="fill:none;stroke:#00ff00;stroke-width:100px;stroke-linecap:butt;stroke-linejoin:miter;stroke-opacity:1" transform="translate(0,33035.755)"/>
  <path d="M 0,3700 H 40000" id="path3-31" style="fill:none;stroke:#00ff00;stroke-width:100px;stroke-linecap:butt;stroke-linejoin:miter;stroke-opacity:1" transform="translate(0,33791)"/>
  <path d="M 0,3700 H 40000" id="path3-82" style="fill:none;stroke:#00ff00;stroke-width:100px;stroke-linecap:butt;stroke-linejoin:miter;stroke-opacity:1" transform="translate(0,12644.143)"/>
  <path d="M 0,3700 H 40000" id="path3-5" style="fill:none;stroke:#00ff00;stroke-width:100px;stroke-linecap:butt;stroke-linejoin:miter;stroke-opacity:1" transform="translate(0,9623.1633)"/>
  <path d="M 0,3700 H 40000" id="path3-93" style="fill:none;stroke:#00ff00;stroke-width:100px;stroke-linecap:butt;stroke-linejoin:miter;stroke-opacity:1" transform="translate(0,6602.1837)"/>
  <path d="M 0,3700 H 40000" id="path3-87" style="fill:none;stroke:#00ff00;stroke-width:100px;stroke-linecap:butt;stroke-linejoin:miter;stroke-opacity:1" transform="translate(0,2070.7143)"/>
  <path d="M 0,3700 H 40000" id="path3-81" style="fill:none;stroke:#00ff00;stroke-width:100px;stroke-linecap:butt;stroke-linejoin:miter;stroke-opacity:1" transform="translate(0,-950.26531)"/>
  <path d="M 0,3700 H 40000" id="path3-35" style="fill:none;stroke:#00ff00;stroke-width:100px;stroke-linecap:butt;stroke-linejoin:miter;stroke-opacity:1" transform="translate(0,-2460.7551)"/>
  <path d="M 0,3700 H 40000" id="path3-9-5" style="fill:none;stroke:#00ff00;stroke-width:100px;stroke-linecap:butt;stroke-linejoin:miter;stroke-opacity:1" transform="translate(0,-195.02041)"/>
  <path d="M 0,3700 H 40000" id="path3-8-2" style="fill:none;stroke:#00ff00;stroke-width:100px;stroke-linecap:butt;stroke-linejoin:miter;stroke-opacity:1" transform="translate(0,1315.4694)"/>
  <path d="M 0,3700 H 40000" id="path3-7-6" style="fill:none;stroke:#00ff00;stroke-width:100px;stroke-linecap:butt;stroke-linejoin:miter;stroke-opacity:1" transform="translate(0,4336.449)"/>
  <path d="M 0,3700 H 40000" id="path3-6-8" style="fill:none;stroke:#00ff00;stroke-width:100px;stroke-linecap:butt;stroke-linejoin:miter;stroke-opacity:1" transform="translate(0,7357.4286)"/>
  <path d="M 0,3700 H 40000" id="path3-77-9" style="fill:none;stroke:#00ff00;stroke-width:100px;stroke-linecap:butt;stroke-linejoin:miter;stroke-opacity:1" transform="translate(0,10378.408)"/>
  <path d="M 0,3700 H 40000" id="path3-90-2" style="fill:none;stroke:#00ff00;stroke-width:100px;stroke-linecap:butt;stroke-linejoin:miter;stroke-opacity:1" transform="translate(0,11888.898)"/>
  <path d="M 0,3700 H 40000" id="path3-4-9" style="fill:none;stroke:#00ff00;stroke-width:100px;stroke-linecap:butt;stroke-linejoin:miter;stroke-opacity:1" transform="translate(0,13399.388)"/>
  <path d="M 0,3700 H 40000" id="path3-75-5" style="fill:none;stroke:#00ff00;stroke-width:100px;stroke-linecap:butt;stroke-linejoin:miter;stroke-opacity:1" transform="translate(0,14909.878)"/>
  <path d="M 0,3700 H 40000" id="path3-3-9" style="fill:none;stroke:#00ff00;stroke-width:100px;stroke-linecap:butt;stroke-linejoin:miter;stroke-opacity:1" transform="translate(0,16420.367)"/>
  <path d="M 0,3700 H 40000" id="path3-41-4" style="fill:none;stroke:#00ff00;stroke-width:100px;stroke-linecap:butt;stroke-linejoin:miter;stroke-opacity:1" transform="translate(0,17930.857)"/>
  <path d="M 0,3700 H 40000" id="path3-908-5" style="fill:none;stroke:#00ff00;stroke-width:100px;stroke-linecap:butt;stroke-linejoin:miter;stroke-opacity:1" transform="translate(0,19441.347)"/>
  <path d="M 0,3700 H 40000" id="path3-45-0" style="fill:none;stroke:#00ff00;stroke-width:100px;stroke-linecap:butt;stroke-linejoin:miter;stroke-opacity:1" transform="translate(0,20951.837)"/>
  <path d="M 0,3700 H 40000" id="path3-80-5" style="fill:none;stroke:#00ff00;stroke-width:100px;stroke-linecap:butt;stroke-linejoin:miter;stroke-opacity:1" transform="translate(0,22462.327)"/>
  <path d="M 0,3700 H 40000" id="path3-74-8" style="fill:none;stroke:#00ff00;stroke-width:100px;stroke-linecap:butt;stroke-linejoin:miter;stroke-opacity:1" transform="translate(0,23972.816)"/>
  <path d="M 0,3700 H 40000" id="path3-1-8" style="fill:none;stroke:#00ff00;stroke-width:100px;stroke-linecap:butt;stroke-linejoin:miter;stroke-opacity:1" transform="translate(0,25483.306)"/>
  <path d="M 0,3700 H 40000" id="path3-63-0" style="fill:none;stroke:#00ff00;stroke-width:100px;stroke-linecap:butt;stroke-linejoin:miter;stroke-opacity:1" transform="translate(0,26993.796)"/>
  <path d="M 0,3700 H 40000" id="path3-19-1" style="fill:none;stroke:#00ff00;stroke-width:100px;stroke-linecap:butt;stroke-linejoin:miter;stroke-opacity:1" transform="translate(0,28504.286)"/>
  <path d="M 0,3700 H 40000" id="path3-42-3" style="fill:none;stroke:#00ff00;stroke-width:100px;stroke-linecap:butt;stroke-linejoin:miter;stroke-opacity:1" transform="translate(0,30014.776)"/>
  <path d="M 0,3700 H 40000" id="path3-31-2" style="fill:none;stroke:#00ff00;stroke-width:100px;stroke-linecap:butt;stroke-linejoin:miter;stroke-opacity:1" transform="translate(0,31525.265)"/>
  <path d="M 0,3700 H 40000" id="path3-82-2" style="fill:none;stroke:#00ff00;stroke-width:100px;stroke-linecap:butt;stroke-linejoin:miter;stroke-opacity:1" transform="translate(0,8867.9184)"/>
  <path d="M 0,3700 H 40000" id="path3-5-2" style="fill:none;stroke:#00ff00;stroke-width:100px;stroke-linecap:butt;stroke-linejoin:miter;stroke-opacity:1" transform="translate(0,5846.9388)"/>
  <path d="M 0,3700 H 40000" id="path3-93-7" style="fill:none;stroke:#00ff00;stroke-width:100px;stroke-linecap:butt;stroke-linejoin:miter;stroke-opacity:1" transform="translate(0,2825.9592)"/>
  <path d="M 0,3700 H 40000" id="path3-87-0" style="fill:none;stroke:#00ff00;stroke-width:100px;stroke-linecap:butt;stroke-linejoin:miter;stroke-opacity:1" transform="translate(0,-1705.5102)"/>
  <path d="M 0,3700 H 40000" id="path3-81-3" style="fill:none;stroke:#00ff00;stroke-width:100px;stroke-linecap:butt;stroke-linejoin:miter;stroke-opacity:1" transform="translate(0,-3216)"/>
  <path d="M 0,3700 H 40000" id="path3-37" style="fill:none;stroke:#00ff00;stroke-width:100px;stroke-linecap:butt;stroke-linejoin:miter;stroke-opacity:1" transform="rotate(-90,20794.612,19205.388)"/>
  <path d="M 0,3700 H 40000" id="path3-9-0" style="fill:none;stroke:#00ff00;stroke-width:100px;stroke-linecap:butt;stroke-linejoin:miter;stroke-opacity:1" transform="rotate(-90,22305.102,17694.898)"/>
  <path d="M 0,3700 H 40000" id="path3-8-9" style="fill:none;stroke:#00ff00;stroke-width:100px;stroke-linecap:butt;stroke-linejoin:miter;stroke-opacity:1" transform="rotate(-90,23060.347,16939.653)"/>
  <path d="M 0,3700 H 40000" id="path3-7-5" style="fill:none;stroke:#00ff00;stroke-width:100px;stroke-linecap:butt;stroke-linejoin:miter;stroke-opacity:1" transform="rotate(-90,24570.837,15429.163)"/>
  <path d="M 0,3700 H 40000" id="path3-6-5" style="fill:none;stroke:#00ff00;stroke-width:100px;stroke-linecap:butt;stroke-linejoin:miter;stroke-opacity:1" transform="rotate(-90,26081.326,13918.674)"/>
  <path d="M 0,3700 H 40000" id="path3-77-8" style="fill:none;stroke:#00ff00;stroke-width:100px;stroke-linecap:butt;stroke-linejoin:miter;stroke-opacity:1" transform="rotate(-90,27591.816,12408.183)"/>
  <path d="M 0,3700 H 40000" id="path3-90-3" style="fill:none;stroke:#00ff00;stroke-width:100px;stroke-linecap:butt;stroke-linejoin:miter;stroke-opacity:1" transform="rotate(-90,28347.061,11652.939)"/>
  <path d="M 0,3700 H 40000" id="path3-4-7" style="fill:none;stroke:#00ff00;stroke-width:100px;stroke-linecap:butt;stroke-linejoin:miter;stroke-opacity:1" transform="rotate(-90,29102.306,10897.694)"/>
  <path d="M 0,3700 H 40000" id="path3-75-8" style="fill:none;stroke:#00ff00;stroke-width:100px;stroke-linecap:butt;stroke-linejoin:miter;stroke-opacity:1" transform="rotate(-90,29857.551,10142.449)"/>
  <path d="M 0,3700 H 40000" id="path3-3-3" style="fill:none;stroke:#00ff00;stroke-width:100px;stroke-linecap:butt;stroke-linejoin:miter;stroke-opacity:1" transform="rotate(-90,30612.796,9387.204)"/>
  <path d="M 0,3700 H 40000" id="path3-41-7" style="fill:none;stroke:#00ff00;stroke-width:100px;stroke-linecap:butt;stroke-linejoin:miter;stroke-opacity:1" transform="rotate(-90,31368.041,8631.959)"/>
  <path d="M 0,3700 H 40000" id="path3-908-9" style="fill:none;stroke:#00ff00;stroke-width:100px;stroke-linecap:butt;stroke-linejoin:miter;stroke-opacity:1" transform="rotate(-90,32123.285,7876.7145)"/>
  <path d="M 0,3700 H 40000" id="path3-45-3" style="fill:none;stroke:#00ff00;stroke-width:100px;stroke-linecap:butt;stroke-linejoin:miter;stroke-opacity:1" transform="rotate(-90,32878.531,7121.4695)"/>
  <path d="M 0,3700 H 40000" id="path3-80-9" style="fill:none;stroke:#00ff00;stroke-width:100px;stroke-linecap:butt;stroke-linejoin:miter;stroke-opacity:1" transform="rotate(-90,33633.776,6366.2245)"/>
  <path d="M 0,3700 H 40000" id="path3-74-1" style="fill:none;stroke:#00ff00;stroke-width:100px;stroke-linecap:butt;stroke-linejoin:miter;stroke-opacity:1" transform="rotate(-90,34389.021,5610.9795)"/>
  <path d="M 0,3700 H 40000" id="path3-1-82" style="fill:none;stroke:#00ff00;stroke-width:100px;stroke-linecap:butt;stroke-linejoin:miter;stroke-opacity:1" transform="rotate(-90,35144.266,4855.7345)"/>
  <path d="M 0,3700 H 40000" id="path3-63-8" style="fill:none;stroke:#00ff00;stroke-width:100px;stroke-linecap:butt;stroke-linejoin:miter;stroke-opacity:1" transform="rotate(-90,35899.51,4100.49)"/>
  <path d="M 0,3700 H 40000" id="path3-19-0" style="fill:none;stroke:#00ff00;stroke-width:100px;stroke-linecap:butt;stroke-linejoin:miter;stroke-opacity:1" transform="rotate(-90,36654.755,3345.245)"/>
  <path d="M 0,3700 H 40000" id="path3-42-1" style="fill:none;stroke:#00ff00;stroke-width:100px;stroke-linecap:butt;stroke-linejoin:miter;stroke-opacity:1" transform="rotate(-90,37032.378,2967.6225)"/>
  <path d="M 0,3700 H 40000" id="path3-31-8" style="fill:none;stroke:#00ff00;stroke-width:100px;stroke-linecap:butt;stroke-linejoin:miter;stroke-opacity:1" transform="rotate(-90,37410,2590)"/>
  <path d="M 0,3700 H 40000" id="path3-82-4" style="fill:none;stroke:#00ff00;stroke-width:100px;stroke-linecap:butt;stroke-linejoin:miter;stroke-opacity:1" transform="rotate(-90,26836.571,13163.429)"/>
  <path d="M 0,3700 H 40000" id="path3-5-8" style="fill:none;stroke:#00ff00;stroke-width:100px;stroke-linecap:butt;stroke-linejoin:miter;stroke-opacity:1" transform="rotate(-90,25326.082,14673.918)"/>
  <path d="M 0,3700 H 40000" id="path3-93-6" style="fill:none;stroke:#00ff00;stroke-width:100px;stroke-linecap:butt;stroke-linejoin:miter;stroke-opacity:1" transform="rotate(-90,23815.592,16184.408)"/>
  <path d="M 0,3700 H 40000" id="path3-87-09" style="fill:none;stroke:#00ff00;stroke-width:100px;stroke-linecap:butt;stroke-linejoin:miter;stroke-opacity:1" transform="rotate(-90,21549.857,18450.143)"/>
  <path d="M 0,3700 H 40000" id="path3-81-30" style="fill:none;stroke:#00ff00;stroke-width:100px;stroke-linecap:butt;stroke-linejoin:miter;stroke-opacity:1" transform="rotate(-90,20039.367,19960.633)"/>
  <path d="M 0,3700 H 40000" id="path3-35-0" style="fill:none;stroke:#00ff00;stroke-width:100px;stroke-linecap:butt;stroke-linejoin:miter;stroke-opacity:1" transform="rotate(-90,19284.122,20715.878)"/>
  <path d="M 0,3700 H 40000" id="path3-9-5-8" style="fill:none;stroke:#00ff00;stroke-width:100px;stroke-linecap:butt;stroke-linejoin:miter;stroke-opacity:1" transform="rotate(-90,20416.99,19583.01)"/>
  <path d="M 0,3700 H 40000" id="path3-8-2-7" style="fill:none;stroke:#00ff00;stroke-width:100px;stroke-linecap:butt;stroke-linejoin:miter;stroke-opacity:1" transform="rotate(-90,21172.235,18827.765)"/>
  <path d="M 0,3700 H 40000" id="path3-7-6-6" style="fill:none;stroke:#00ff00;stroke-width:100px;stroke-linecap:butt;stroke-linejoin:miter;stroke-opacity:1" transform="rotate(-90,22682.724,17317.275)"/>
  <path d="M 0,3700 H 40000" id="path3-6-8-3" style="fill:none;stroke:#00ff00;stroke-width:100px;stroke-linecap:butt;stroke-linejoin:miter;stroke-opacity:1" transform="rotate(-90,24193.214,15806.786)"/>
  <path d="M 0,3700 H 40000" id="path3-77-9-5" style="fill:none;stroke:#00ff00;stroke-width:100px;stroke-linecap:butt;stroke-linejoin:miter;stroke-opacity:1" transform="rotate(-90,25703.704,14296.296)"/>
  <path d="M 0,3700 H 40000" id="path3-90-2-6" style="fill:none;stroke:#00ff00;stroke-width:100px;stroke-linecap:butt;stroke-linejoin:miter;stroke-opacity:1" transform="rotate(-90,26458.949,13541.051)"/>
  <path d="M 0,3700 H 40000" id="path3-4-9-5" style="fill:none;stroke:#00ff00;stroke-width:100px;stroke-linecap:butt;stroke-linejoin:miter;stroke-opacity:1" transform="rotate(-90,27214.194,12785.806)"/>
  <path d="M 0,3700 H 40000" id="path3-75-5-8" style="fill:none;stroke:#00ff00;stroke-width:100px;stroke-linecap:butt;stroke-linejoin:miter;stroke-opacity:1" transform="rotate(-90,27969.439,12030.561)"/>
  <path d="M 0,3700 H 40000" id="path3-3-9-3" style="fill:none;stroke:#00ff00;stroke-width:100px;stroke-linecap:butt;stroke-linejoin:miter;stroke-opacity:1" transform="rotate(-90,28724.683,11275.317)"/>
  <path d="M 0,3700 H 40000" id="path3-41-4-9" style="fill:none;stroke:#00ff00;stroke-width:100px;stroke-linecap:butt;stroke-linejoin:miter;stroke-opacity:1" transform="rotate(-90,29479.929,10520.071)"/>
  <path d="M 0,3700 H 40000" id="path3-908-5-4" style="fill:none;stroke:#00ff00;stroke-width:100px;stroke-linecap:butt;stroke-linejoin:miter;stroke-opacity:1" transform="rotate(-90,30235.173,9764.8265)"/>
  <path d="M 0,3700 H 40000" id="path3-45-0-8" style="fill:none;stroke:#00ff00;stroke-width:100px;stroke-linecap:butt;stroke-linejoin:miter;stroke-opacity:1" transform="rotate(-90,30990.418,9009.5815)"/>
  <path d="M 0,3700 H 40000" id="path3-80-5-3" style="fill:none;stroke:#00ff00;stroke-width:100px;stroke-linecap:butt;stroke-linejoin:miter;stroke-opacity:1" transform="rotate(-90,31745.664,8254.3365)"/>
  <path d="M 0,3700 H 40000" id="path3-74-8-9" style="fill:none;stroke:#00ff00;stroke-width:100px;stroke-linecap:butt;stroke-linejoin:miter;stroke-opacity:1" transform="rotate(-90,32500.908,7499.092)"/>
  <path d="M 0,3700 H 40000" id="path3-1-8-7" style="fill:none;stroke:#00ff00;stroke-width:100px;stroke-linecap:butt;stroke-linejoin:miter;stroke-opacity:1" transform="rotate(-90,33256.153,6743.847)"/>
  <path d="M 0,3700 H 40000" id="path3-63-0-6" style="fill:none;stroke:#00ff00;stroke-width:100px;stroke-linecap:butt;stroke-linejoin:miter;stroke-opacity:1" transform="rotate(-90,34011.398,5988.602)"/>
  <path d="M 0,3700 H 40000" id="path3-19-1-4" style="fill:none;stroke:#00ff00;stroke-width:100px;stroke-linecap:butt;stroke-linejoin:miter;stroke-opacity:1" transform="rotate(-90,34766.643,5233.357)"/>
  <path d="M 0,3700 H 40000" id="path3-42-3-5" style="fill:none;stroke:#00ff00;stroke-width:100px;stroke-linecap:butt;stroke-linejoin:miter;stroke-opacity:1" transform="rotate(-90,35521.888,4478.112)"/>
  <path d="M 0,3700 H 40000" id="path3-31-2-8" style="fill:none;stroke:#00ff00;stroke-width:100px;stroke-linecap:butt;stroke-linejoin:miter;stroke-opacity:1" transform="rotate(-90,36277.133,3722.8675)"/>
  <path d="M 0,3700 H 40000" id="path3-82-2-6" style="fill:none;stroke:#00ff00;stroke-width:100px;stroke-linecap:butt;stroke-linejoin:miter;stroke-opacity:1" transform="rotate(-90,24948.459,15051.541)"/>
  <path d="M 0,3700 H 40000" id="path3-5-2-1" style="fill:none;stroke:#00ff00;stroke-width:100px;stroke-linecap:butt;stroke-linejoin:miter;stroke-opacity:1" transform="rotate(-90,23437.969,16562.031)"/>
  <path d="M 0,3700 H 40000" id="path3-93-7-5" style="fill:none;stroke:#00ff00;stroke-width:100px;stroke-linecap:butt;stroke-linejoin:miter;stroke-opacity:1" transform="rotate(-90,21927.48,18072.52)"/>
  <path d="M 0,3700 H 40000" id="path3-87-0-5" style="fill:none;stroke:#00ff00;stroke-width:100px;stroke-linecap:butt;stroke-linejoin:miter;stroke-opacity:1" transform="rotate(-90,19661.745,20338.255)"/>
  <path d="M 0,3700 H 40000" id="path3-81-3-1" style="fill:none;stroke:#00ff00;stroke-width:100px;stroke-linecap:butt;stroke-linejoin:miter;stroke-opacity:1" transform="rotate(-90,18906.5,21093.5)"/>
</svg>