<?xml version="1.0" encoding="UTF-8" standalone="no"?>
<!-- Created with Inkscape (http://www.inkscape.org/) -->

<svg
   height="40000"
   id="svg2"
   inkscape:version="1.4.3 (0d15f75, 2025-12-25)"
   sodipodi:docname="test.svg"
   version="1.1"
   width="40000"
   xml:space="preserve"
   xmlns:inkscape="http://www.inkscape.org/namespaces/inkscape"
   xmlns:sodipodi="http://sodipodi.sourceforge.net/DTD/sodipodi-0.dtd"
   xmlns:xlink="http://www.w3.org/1999/xlink"
   xmlns="http://www.w3.org/2000/svg"
   xmlns:svg="http://www.w3.org/2000/svg"
   xmlns:rdf="http://www.w3.org/1999/02/22-rdf-syntax-ns#"
   xmlns:cc="http://creativecommons.org/ns#"
   xmlns:dc="http://purl.org/dc/elements/1.1/"><sodipodi:namedview
     bordercolor="#666666"
     borderopacity="1.0"
     id="base"
     inkscape:current-layer="svg2"
     inkscape:cx="19197.949"
     inkscape:cy="15662.415"
     inkscape:deskcolor="#d1d1d1"
     inkscape:document-units="px"
     inkscape:pagecheckerboard="0"
     inkscape:pageopacity="0.0"
     inkscape:pageshadow="2"
     inkscape:showpageshadow="false"
     inkscape:window-height="1261"
     inkscape:window-maximized="1"
     inkscape:window-width="2400"
     inkscape:window-x="-9"
     inkscape:window-y="-9"
     inkscape:zoom="0.014142136"
     pagecolor="#ffffff"
     showgrid="false"
     showguides="true" /><defs
     id="defs4" /><metadata
     id="metadata7"><rdf:RDF><cc:Work
         rdf:about=""><dc:format>image/svg+xml</dc:format><dc:type
           rdf:resource="http://purl.org/dc/dcmitype/StillImage" /></cc:Work></rdf:RDF></metadata><image
     x="0"
     y="0"
     width="30000"
     height="30000"
     xlink:href="test_surfacepic.jpg"
     id="image1" /><image
     x="4151.599999999999"
     y="4468.9"
     width="5500.0"
     height="5500.0"
     xlink:href="test_R_tMLG_Au0005_inset.jpg"
     id="image2"
     /><image
     x="1735.0"
     y="7029.0"
     width="5500.0"
     height="5500.0"
     xlink:href="test_R_tMLG_Au0004_inset.jpg"
     id="image0" /><g
     id="g4"
     transform="translate(30264.169,23829.498)"><rect
       height="7253.042"
       id="rect14-8"
       style="fill:#00ff00;fill-opacity:1;stroke:#000000;stroke-width:0.693561;stroke-miterlimit:4;stroke-dasharray:none;stroke-opacity:1"
       transform="matrix(1.1237265,-0.00330692,0.45761161,1.2541239,-12855.505,-29850.036)"
       width="10291.699"
       x="-4974.5957"
       y="39154.031" /><g
       id="g2"><path
         d="m 5710.9429,17975.706 44.593,-4593.756 c 1461.0246,971.983 3035.6976,1713.83 4682.3101,2310.003 -1752.8115,344.069 -3431.5235,862.613 -4726.9031,2283.753 z"
         id="path3768"
         inkscape:connector-curvature="0"
         sodipodi:nodetypes="cccc"
         style="fill:#00ff00;fill-opacity:1;stroke:#00fb00;stroke-width:68.4275;stroke-linecap:butt;stroke-linejoin:miter;stroke-miterlimit:4;stroke-dasharray:none;stroke-opacity:1" /><path
         d="m 13400.892,10059.383 4593.756,44.594 c -971.983,1461.024 -1713.83,3035.698 -2310.003,4682.311 -344.069,-1752.812 -862.613,-3431.524 -2283.753,-4726.905 z"
         id="path3768-1"
         inkscape:connector-curvature="0"
         sodipodi:nodetypes="cccc"
         style="fill:#00ff00;fill-opacity:1;stroke:#00fb00;stroke-width:68.4275;stroke-linecap:butt;stroke-linejoin:miter;stroke-miterlimit:4;stroke-dasharray:none;stroke-opacity:1" /><path
         d="m 18739.549,9988.6728 4593.756,44.5932 c -971.983,1461.025 -1713.83,3035.698 -2310.003,4682.311 -344.069,-1752.812 -862.613,-3431.524 -2283.753,-4726.9042 z"
         id="path3768-9"
         inkscape:connector-curvature="0"
         sodipodi:nodetypes="cccc"
         style="fill:#00ff00;fill-opacity:1;stroke:#00fb00;stroke-width:68.4275;stroke-linecap:butt;stroke-linejoin:miter;stroke-miterlimit:4;stroke-dasharray:none;stroke-opacity:1" /><path
         d="m 8100.4383,10879.12 4509.0037,-879.4745 c -658.548,1626.5485 -1068.815,3318.1785 -1321.924,5051.0065 -689.294,-1647.91 -1534.6121,-3188.17 -3187.0797,-4171.532 z"
         id="path3768-88"
         inkscape:connector-curvature="0"
         sodipodi:nodetypes="cccc"
         style="fill:#00ff00;fill-opacity:1;stroke:#00fb00;stroke-width:68.4275;stroke-linecap:butt;stroke-linejoin:miter;stroke-miterlimit:4;stroke-dasharray:none;stroke-opacity:1" /><path
         d="M 28994.557,10486.846 25071.601,9220.3251 c 541.997,1669.0069 177.663,3332.3599 307.727,5078.7399 803.986,-1595.099 1897.423,-2948.05 3615.229,-3812.219 z"
         id="path3768-88-4"
         inkscape:connector-curvature="0"
         sodipodi:nodetypes="cccc"
         style="fill:#00ff00;fill-opacity:1;stroke:#00fb00;stroke-width:68.4275;stroke-linecap:butt;stroke-linejoin:miter;stroke-miterlimit:4;stroke-dasharray:none;stroke-opacity:1" /><path
         d="m 31708.383,17654.207 -44.593,-4593.756 c -1461.024,971.983 -3035.697,1713.83 -4682.31,2310.003 1752.812,344.069 3431.524,862.613 4726.903,2283.753 z"
         id="path3768-3"
         inkscape:connector-curvature="0"
         sodipodi:nodetypes="cccc"
         style="fill:#00ff00;fill-opacity:1;stroke:#00fb00;stroke-width:68.4275;stroke-linecap:butt;stroke-linejoin:miter;stroke-miterlimit:4;stroke-dasharray:none;stroke-opacity:1" /><path
         d="m 9075.4469,21348.552 c 0,0 -5.0869,-1278.12 199.2302,-1901.329 280.3951,-855.263 106.6737,-1996.952 1394.6099,-2478.519 1377.731,-515.142 5080.057,-279.059 7627.666,-339.523 1876.994,-44.548 3759.094,-71.272 5635.365,-16.976 1209.741,35.007 2679.222,-238.229 3614.603,220.69 903.916,443.482 984.374,1305.486 1024.612,2003.186 44.859,777.835 -882.304,2274.805 -882.304,2274.805"
         id="path3856"
         inkscape:connector-curvature="0"
         sodipodi:nodetypes="casaaaac"
         style="fill:none;stroke:#00fb00;stroke-width:62.1717;stroke-linecap:butt;stroke-linejoin:miter;stroke-miterlimit:4;stroke-dasharray:none;stroke-opacity:1" /><rect
         height="7255.8125"
         id="rect14"
         style="opacity:1;fill:#00ff00;fill-opacity:1;stroke:#000000;stroke-width:0.755906;stroke-miterlimit:4;stroke-dasharray:none;stroke-opacity:1"
         width="11888.403"
         x="14347.161"
         y="20973.98" /><text
         id="text843"
         style="font-style:normal;font-weight:normal;font-size:53.3333px;line-height:1.25;font-family:sans-serif;letter-spacing:0px;word-spacing:0px;fill:#000000;fill-opacity:1;stroke:none"
         x="12020.815"
         xml:space="preserve"
         y="20554.562">     <tspan
   id="tspan841"
   sodipodi:role="line"
   x="12020.815"
   y="20554.562">T</tspan>  </text><circle
         cx="15000"
         cy="18500"
         id="path825"
         r="100"
         style="opacity:1;fill:#00ff00;fill-opacity:1;stroke:#000000;stroke-width:1.00157;stroke-miterlimit:4;stroke-dasharray:none;stroke-opacity:1" /><circle
         cx="20000"
         cy="18500"
         id="path825-31"
         r="100"
         style="fill:#00ff00;fill-opacity:1;stroke:#000000;stroke-width:1.00157;stroke-miterlimit:4;stroke-dasharray:none;stroke-opacity:1" /><circle
         cx="22500"
         cy="18500"
         id="path825-3"
         r="100"
         style="fill:#00ff00;fill-opacity:1;stroke:#000000;stroke-width:1.00157;stroke-miterlimit:4;stroke-dasharray:none;stroke-opacity:1" /><circle
         cx="17500"
         cy="18500"
         id="path825-9"
         r="100"
         style="fill:#00ff00;fill-opacity:1;stroke:#000000;stroke-width:1.00157;stroke-miterlimit:4;stroke-dasharray:none;stroke-opacity:1" /><circle
         cx="25000"
         cy="18500"
         id="path825-3-5"
         r="100"
         style="fill:#00ff00;fill-opacity:1;stroke:#000000;stroke-width:1.00157;stroke-miterlimit:4;stroke-dasharray:none;stroke-opacity:1" /><circle
         cx="13000"
         cy="20500"
         id="path825-5"
         r="100"
         style="fill:#00ff00;fill-opacity:1;stroke:#000000;stroke-width:1.00157;stroke-miterlimit:4;stroke-dasharray:none;stroke-opacity:1" /><circle
         cx="17000"
         cy="20500"
         id="path825-3-4"
         r="100"
         style="fill:#00ff00;fill-opacity:1;stroke:#000000;stroke-width:1.00157;stroke-miterlimit:4;stroke-dasharray:none;stroke-opacity:1" /><circle
         cx="15000"
         cy="20500"
         id="path825-9-6"
         r="100"
         style="fill:#00ff00;fill-opacity:1;stroke:#000000;stroke-width:1.00157;stroke-miterlimit:4;stroke-dasharray:none;stroke-opacity:1" /><circle
         cx="19000"
         cy="20500"
         id="path825-3-5-2"
         r="100"
         style="fill:#00ff00;fill-opacity:1;stroke:#000000;stroke-width:1.00157;stroke-miterlimit:4;stroke-dasharray:none;stroke-opacity:1" /><path
         d="M 13650,17000 26000,15600"
         id="path1392"
         inkscape:connector-curvature="0"
         style="fill:none;stroke:#00ff00;stroke-width:50;stroke-linecap:butt;stroke-linejoin:miter;stroke-miterlimit:4;stroke-dasharray:none;stroke-opacity:1" /><path
         d="m 11200,26850 c 1203.007,3334.458 2168.666,2633.989 3250,3900 l 3300,-1750"
         id="path1394"
         inkscape:connector-curvature="0"
         sodipodi:nodetypes="ccc"
         style="fill:none;stroke:#00ff00;stroke-width:50;stroke-linecap:butt;stroke-linejoin:miter;stroke-miterlimit:4;stroke-dasharray:none;stroke-opacity:1"
         transform="translate(-6010.4076,-22627.417)" /><path
         d="m 14849.242,3959.7979 h 11525.84"
         id="path4"
         style="fill:none;stroke:#00ff00;stroke-width:100px;stroke-linecap:butt;stroke-linejoin:miter;stroke-opacity:1"
         transform="translate(0,440)" /><path
         d="M 14849.242,4560.8386 H 26357.405"
         id="path2"
         style="fill:none;stroke:#00ff00;stroke-width:100px;stroke-linecap:butt;stroke-linejoin:miter;stroke-opacity:1" /><g
         id="g1"><path
           d="M 14850,5174.9999 H 26349.999"
           id="path1"
           style="fill:none;stroke:#00ff00;stroke-width:100px;stroke-linecap:butt;stroke-linejoin:miter;stroke-opacity:1"
           transform="translate(16.91967,-437.3846)" /><g
           id="g3"
           transform="matrix(0.87240932,-0.1215228,0.11425413,0.92791062,3276.3322,3478.6107)"><path
             d="m 14849.242,3959.7979 h 11525.84"
             id="path4-6"
             style="fill:none;stroke:#00ff00;stroke-width:100px;stroke-linecap:butt;stroke-linejoin:miter;stroke-opacity:1"
             transform="translate(4993.758,1820.2021)" /><path
             d="M 14849.242,4560.8386 H 26357.405"
             id="path2-3"
             style="fill:none;stroke:#00ff00;stroke-width:100px;stroke-linecap:butt;stroke-linejoin:miter;stroke-opacity:1"
             transform="translate(4993.758,1380.2021)" /><path
             d="M 14850,5174.9999 H 26349.999"
             id="path1-6"
             style="fill:none;stroke:#00ff00;stroke-width:100px;stroke-linecap:butt;stroke-linejoin:miter;stroke-opacity:1"
             transform="translate(5010.6777,942.8175)" /></g></g><path
         d="m 19657.6,32703.7 c 34.6,-295.5 69.3,-578.9 104,-666.8 34.6,-87.9 69.3,27.6 104,270.8 34.6,243.3 69.3,595.3 104,827.6 34.6,232.4 69.3,325.9 104,220.7 34.6,-105.3 69.3,-401.7 104,-696.6 34.6,-294.9 69.3,-564.5 104,-634.3 34.6,-69.8 69.3,66.5 104,319.9 34.6,253.4 69.3,604 104,824.3 34.7,220.3 69.3,292.1 104,169.6 34.7,-122.6 69.3,-430.5 104,-723.6 34.7,-293.1 69.3,-547.8 104,-599.3 34.7,-51.5 69.3,105.2 104,367.7 34.7,262.5 69.3,610.3 104,817.6 34.7,207.4 69.3,257.2 104,117.9 34.7,-139.4 69.3,-457.5 104,-747.7 34.7,-290.1 69.3,-528.8 104,-561.8 34.7,-32.9 69.3,143.4 104,414 34.7,270.6 69.3,614.1 104,807.7 34.7,193.6 69.3,221.2 104,65.6 34.7,-155.6 69.3,-482.7 104,-768.7 34.7,-286 69.3,-507.8 104,-522.1 34.7,-14.2 69.3,181.1 104,458.7 34.7,277.5 69.3,615.4 104,794.4 34.7,179.1 69.4,184.4 104,13.2 34.7,-171.2 69.4,-505.9 104,-786.7 34.7,-280.7 69.4,-484.8 104,-480.3 34.7,4.5 69.4,218 104,501.5 34.7,283.4 69.4,614.2 104,778 34.7,163.9 69.4,146.8 104,-39.4 34.7,-186.1 69.4,-527.1 104,-801.4 34.7,-274.4 69.4,-459.8 104,-436.6 34.7,23.2 69.4,254.1 104,542.3 34.7,288.1 69.4,610.6 104,758.5 34.7,147.9 69.4,108.6 104,-91.8 34.7,-200.3 69.4,-546.2 104,-813 34.7,-266.9 69.4,-432.9 104,-391.1 34.7,41.9 69.4,289.2 104,580.9 34.7,291.7 69.4,604.6 104,735.9 34.7,131.4 69.4,69.9 104,-143.8 34.7,-213.6 69.4,-563 104.1,-821.3 34.6,-258.3 69.3,-404.3 104,-344 34.6,60.3 69.3,323 104,617.1 34.6,294.1 69.3,596.1 104,710.4 34.6,114.4 69.3,31 104,-195.2 34.6,-226.2 69.3,-577.7 104,-826.3 34.6,-248.7 69.3,-374.1 104,-295.5 34.6,78.5 69.3,355.5 104,650.8 34.6,295.3 69.3,585.2 104,682.1 34.6,96.8 69.3,-8.1 104,-245.9 34.6,-237.8 69.3,-590 104,-828 34.6,-238 69.3,-342.3 104,-245.9 34.6,96.5 69.3,386.7 104,682 34.6,295.3 69.3,572 104,650.9 34.6,78.9 69.3,-47.1 104,-295.5 34.6,-248.4 69.3,-599.9 104,-826.3 34.6,-226.5 69.3,-309.2 104,-195.3 34.7,114 69.3,416.3 104,710.5 34.7,294.1 69.3,556.4 104,617.1 34.7,60.6 69.3,-85.9 104,-344 34.7,-258.1 69.3,-607.4 104,-821.4 34.7,-213.9 69.3,-274.8 104,-143.8 34.7,131.1 69.3,444.3 104,736 34.7,291.8 69.3,538.6 104,580.8 34.7,42.3 69.3,-124.3 104,-391 34.7,-266.7 69.3,-612.5 104,-813.1 34.7,-200.6 69.3,-239.3 104,-91.7 34.7,147.5 69.3,470.3 104,758.5 34.7,288.3 69.3,518.7 104,542.3 34.7,23.6 69.3,-162.4 104,-436.6 34.7,-274.2 69.3,-615 104,-801.5 34.7,-186.4 69.3,-202.9 104,-39.4 34.7,163.5 69.3,494.6 104,778.1 34.7,283.5 69.4,496.6 104,501.5 34.7,4.8 69.4,-199.7 104,-480.3 34.7,-280.7 69.4,-615.2 104,-786.7 34.7,-171.5 69.4,-165.6 104,13.1 34.7,178.8 69.4,516.8 104,794.5 34.7,277.7 69.4,472.5 104,458.7 34.7,-13.9 69.4,-236.2 104,-522.1 34.7,-286 69.4,-612.8 104,-768.7 34.7,-156 69.4,-127.8 104,65.6 34.7,193.3 69.4,536.9 104,807.6 34.7,270.8 69.4,446.6 104,414.1 34.7,-32.6 69.4,-271.8 104,-561.9 34.7,-290 69.4,-607.9 104,-747.6 34.7,-139.7 69.4,-89.3 104,117.8 34.7,207.2 69.4,555 104,817.7 34.7,262.6 69.4,418.8 104.1,367.6 34.6,-51.1 69.3,-306.2 104,-599.2 34.6,-293.1 69.3,-600.7 104,-723.6 34.6,-122.9 69.3,-50.5 104,169.6 34.6,220.1 69.3,570.7 104,824.3 34.6,253.6 69.3,389.3 104,319.9 34.6,-69.5 69.3,-339.5 104,-634.3 34.6,-294.9 69.3,-591 104,-696.6 34.6,-105.6 69.3,-11.5 104,220.6 34.6,232.2 69.3,584.2 104,827.6 34.6,243.5 69.3,358.4 104,270.9 34.6,-87.6 69.3,-371.4 104,-666.8"
         id="path3"
         style="fill:none;stroke:#00ff00;stroke-width:100;stroke-dasharray:none;paint-order:fill markers stroke"
         title="t sin(20*t)"
         transform="translate(-11242.998,-26445.794)" /></g></g></svg>
